<?xml version="1.0" encoding="utf-8"?>
<!-- Generator: Adobe Illustrator 25.2.1, SVG Export Plug-In . SVG Version: 6.00 Build 0)  -->
<svg version="1.1" id="Layer_1" xmlns="http://www.w3.org/2000/svg" xmlns:xlink="http://www.w3.org/1999/xlink" x="0px" y="0px"
	 viewBox="0 0 656.61 185.69" style="enable-background:new 0 0 656.61 185.69;" xml:space="preserve">
<style type="text/css">
	.st0{fill:#FFFFFF;}
	.st1{fill:#00A9E0;}
</style>
<polyline class="st0" points="23.69,116.53 176.41,95.16 38.25,131.1 54.64,147.48 182.21,94.01 10.94,103.78 "/>
<path class="st1" d="M38.25,131.1"/>
<polygon class="st0" points="72.83,165.68 92.85,185.69 185.69,92.85 "/>
<polygon class="st0" points="92.85,0 0,92.85 185.69,92.85 "/>
<path class="st0" d="M213.55,84.59V18.57h30.36v9.88h-19.02v17.01h14.63v9.88h-14.63v19.39h20.3v9.88H213.55z"/>
<path class="st0" d="M271.74,34.85c-0.46-5.67-3.47-7.32-6.04-7.32c-3.66,0-5.67,2.38-5.67,6.49c0,11.25,23.04,16.64,23.04,34.57
	c0,10.88-7.32,16.92-17.92,16.92c-10.52,0-16.55-8.41-17.01-18.29l10.79-1.55c0.46,6.68,3.11,9.97,6.77,9.97
	c3.93,0,6.58-2.1,6.58-6.04c0-13.08-23.05-16.55-23.05-35.48c0-10.52,6.4-16.46,17.56-16.46c9.24,0,14.72,6.68,15.73,16
	L271.74,34.85z"/>
<path class="st0" d="M311.94,40.61v-5.12c0-5.58-2.56-7.96-5.49-7.96c-4.57,0-6.04,2.38-6.04,7.32v33.47c0,4.94,1.46,7.32,6.04,7.32
	c4.12,0,5.49-2.38,5.49-6.68V61h11.34v7.59c0,9.33-5.49,16.92-16.83,16.92c-11.89,0-17.37-7.59-17.37-16.92V34.57
	c0-9.33,5.49-16.92,17.37-16.92c11.34,0,16.83,8.23,16.83,18.11v4.85H311.94z"/>
<path class="st0" d="M338.39,84.59h-10.97l12.16-66.02h14.08l12.16,66.02h-10.97l-2.01-14.63H340.4L338.39,84.59z M342.05,60.09
	h9.14l-4.48-28.35h-0.18L342.05,60.09z"/>
<path class="st0" d="M371.58,84.59V18.57h10.52l13.81,37.77h0.18V18.57h10.24v66.02h-9.88l-14.45-41.24h-0.18v41.24H371.58z"/>
<path class="st0" d="M415.64,18.57h16.83c11.71,0,17.92,6.4,17.92,19.94v26.15c0,13.53-6.22,19.94-17.92,19.94h-16.83V18.57z
	 M426.98,75.27h3.93c6.04,0,8.14-2.29,8.14-9.24v-28.9c0-6.95-2.1-9.24-8.14-9.24h-3.93V75.27z"/>
<path class="st0" d="M459.69,84.59V18.57h11.34v66.02H459.69z"/>
<path class="st0" d="M480.33,84.59V18.57h10.52l13.81,37.77h0.18V18.57h10.24v66.02h-9.88l-14.45-41.24h-0.18v41.24H480.33z"/>
<path class="st0" d="M531.82,84.59h-10.97L533,18.57h14.08l12.16,66.02h-10.97l-2.01-14.63h-12.44L531.82,84.59z M535.47,60.09h9.14
	l-4.48-28.35h-0.18L535.47,60.09z"/>
<path class="st0" d="M584.18,18.57h11.16l-13.81,66.02h-11.34l-13.81-66.02h11.16l8.23,45.82h0.18L584.18,18.57z"/>
<path class="st0" d="M601.1,84.59V18.57h11.34v66.02H601.1z"/>
<path class="st0" d="M629.17,84.59H618.2l12.16-66.02h14.08l12.16,66.02h-10.97l-2.01-14.63h-12.44L629.17,84.59z M632.83,60.09
	h9.14l-4.48-28.35h-0.18L632.83,60.09z"/>
<path class="st0" d="M213.55,101.1h16.83c11.71,0,17.92,6.4,17.92,19.94v26.15c0,13.53-6.22,19.94-17.92,19.94h-16.83V101.1z
	 M224.89,157.8h3.93c6.04,0,8.14-2.29,8.14-9.24v-28.9c0-6.95-2.1-9.24-8.14-9.24h-3.93V157.8z"/>
<path class="st0" d="M257.6,167.13V101.1h30.36v9.88h-19.02v17.01h14.63v9.88h-14.63v19.39h20.3v9.88H257.6z"/>
<path class="st0" d="M297.02,167.13V101.1h11.34v56.15h17.83v9.88H297.02z"/>
<path class="st0" d="M349.64,167.13V101.1h16.28c13.99,0,20.48,5.4,20.48,19.48s-6.49,19.48-20.48,19.48h-4.94v27.07H349.64z
	 M360.98,130.73h4.39c7.41,0,9.69-2.29,9.69-10.15c0-7.86-2.29-10.15-9.69-10.15h-4.39V130.73z"/>
<path class="st0" d="M391.43,167.13V101.1h11.34v56.15h16.28v9.88H391.43z"/>
<path class="st0" d="M433.62,167.13h-10.97l12.16-66.02h14.08l12.16,66.02h-10.97l-2.01-14.63h-12.44L433.62,167.13z M437.27,142.62
	h9.14l-4.48-28.35h-0.18L437.27,142.62z"/>
<path class="st0" d="M471.48,110.98H460.5v-9.88h33.29v9.88h-10.97v56.15h-11.34V110.98z"/>
<path class="st0" d="M504.25,167.13h-10.97l12.16-66.02h14.08l12.16,66.02h-10.97l-2.01-14.63h-12.44L504.25,167.13z M507.91,142.62
	h9.14l-4.48-28.35h-0.18L507.91,142.62z"/>
</svg>
